<?xml version="1.0"?>
<svg width="25.811" height="25.811" xmlns="http://www.w3.org/2000/svg" xmlns:svg="http://www.w3.org/2000/svg" xmlns:xlink="http://www.w3.org/1999/xlink">
 <g>
  <title>Layer 1</title>
  <g id="svg_4"/>
  <g id="svg_5"/>
  <g id="svg_6"/>
  <g id="svg_7"/>
  <g id="svg_8"/>
  <g id="svg_9"/>
  <g id="svg_10"/>
  <g id="svg_11"/>
  <g id="svg_12"/>
  <g id="svg_13"/>
  <g id="svg_14"/>
  <g id="svg_15"/>
  <g id="svg_16"/>
  <g id="svg_17"/>
  <g id="svg_18"/>
  <g id="svg_19" stroke="null">
   <g id="svg_20" stroke="null">
    <path fill="#ff7f00" id="svg_21" d="m8.22398,4.59356l-0.2704,0c0.43212,-0.34567 0.7034,-0.84673 0.7034,-1.40369c0,-0.82652 -0.586789,-1.53062 -1.42639,-1.78527c-0.2253,-0.50831 -0.77755,-0.86144 -1.42947,-0.86144c-0.18922,0 -0.37469,0.031 -0.54873,0.09142c-0.25566,-0.08867 -0.52761,-0.13458 -0.80285,-0.13458c-0.78855,0 -1.49877,0.36569 -1.89613,0.94482c-1.00461,0.06356 -1.80042,0.81299 -1.80042,1.72445c0,0.55127 0.29064,1.04271 0.74234,1.35955c0.00022,0.0002 0.00044,0.0002 0.00044,0.00039c0,-0.00019 -0.00022,-0.00019 -0.00044,-0.00039l0.27107,4.22658c0.02684,0.420031 0.41671,0.7506 0.88844,0.7506l4.10116,0c0.47194,0 0.8616,-0.330179 0.88822,-0.749809l0.02794,-0.43258l0.55181,0c0.73399,0 1.33002,-0.52832 1.33002,-1.18279l0,-1.36053c-0.000441,-0.65427 -0.59647,-1.18672 -1.33002,-1.18672l0,0l0.00001,-0.00001zm-5.05055,4.09985c-0.00682,0.00039 -0.01386,0.00039 -0.0209,0.00039c-0.17338,0 -0.31881,-0.12007 -0.32981,-0.27603l-0.19384,-2.75716c-0.01496,-0.216 0.17294,-0.30821 0.31991,-0.31291c0.16436,-0.00471 0.32519,0.10594 0.33465,0.25033c0.04863,0.72725 0.19912,2.78266 0.19912,2.78266c0.01144,0.16244 -0.12695,0.30232 -0.30913,0.31272l0,0l0,0zm1.85939,-0.29428c0,0.16244 -0.14896,0.29467 -0.33135,0.29467c-0.18262,0 -0.33157,-0.13223 -0.33157,-0.29467c0,0 0,-2.06797 0,-2.75736c0,-0.10594 0.04643,-0.29467 0.33399,-0.29467c0.1824,0 0.32893,0.13203 0.32893,0.29467l0,2.75736zm1.74937,-2.73852l-0.1945,2.75716c-0.01122,0.15597 -0.15665,0.27603 -0.32937,0.27603c-0.00682,0 -0.01386,-0.00039 -0.02135,-0.00078c-0.18217,-0.0102 -0.32057,-0.15028 -0.30869,-0.31252l0.19384,-2.75716c0.01166,-0.16244 0.16413,-0.28584 0.35071,-0.27564c0.18218,0.0102 0.32057,0.15047 0.30935,0.31291l0,0l0,0l0.00001,0zm-0.24158,-1.17298c-0.27679,0 -0.53465,-0.07004 -0.7551,-0.18991c-0.16062,0.27505 -0.48008,0.46476 -0.8517,0.46476c-0.16875,0 -0.32453,-0.04179 -0.46226,-0.10967c-0.17514,0.22993 -0.4704,0.3804 -0.80527,0.3804c-0.48316,0 -0.88162,-0.31448 -0.95818,-0.72549c-0.0055,0 -0.01078,0.00079 -0.01628,0.00079c-0.7056,0 -1.27787,-0.51008 -1.27787,-1.13943c0,-0.62916 0.57227,-1.13924 1.27787,-1.13924c0.09241,0 0.18239,0.00922 0.26974,0.0259c0.20286,-0.56069 0.79229,-0.96659 1.48843,-0.96659c0.30011,0 0.57975,0.07671 0.81803,0.20756c0.1483,-0.10162 0.33179,-0.1644 0.53333,-0.1644c0.47832,0 0.86555,0.34136 0.87612,0.7657c0.7397,0.06141 1.31857,0.61602 1.31857,1.29148c0.00044,0.71705 -0.65104,1.29815 -1.45543,1.29815l0,0l0,-0.00001zm2.13287,2.65319c0,0.2211 -0.20198,0.39825 -0.4495,0.39825l-0.50164,0l0.13861,-2.16077l0.36303,0c0.24752,0 0.4495,0.18108 0.4495,0.40198l0,1.36053l0,0.00001z" stroke="null"/>
   </g>
  </g>
  <use id="svg_40" xlink:href="#svg_39" transform="matrix(0.5203644484737375,0,0,0.4042539319670375,-7.585997651473852,-1.463088116330709) " y="23.01052" x="26.66262"/>
  <use id="svg_59" xlink:href="#svg_58" transform="matrix(0.40260141300960584,0,0,0.3701671074877311,-5.3060726026978955,-2.8564214885227557) " y="50.7" x="52.5"/>
 </g>
 <defs>
  <symbol id="svg_39" xmlns="http://www.w3.org/2000/svg" xmlns:svg="http://www.w3.org/2000/svg">
   <g id="svg_60">
    <title>Layer 1</title>
    <g id="svg_1">
     <circle cx="22.071" cy="2.063" r="2.313" fill="#007fff" id="svg_38"/>
     <path d="m16.933001,2.686c1.035,0 2.560999,0.632 2.560999,2.157s-0.977999,4.333 -0.977999,4.333s2.554998,1.673 3.191,2.186001c1.331999,1.072 0.879,2.033999 -0.904001,1.280999c-2.894999,-1.222 -4.254,-1.825 -4.472,-2.587999s-0.025,-2.311 -0.025,-2.311l-1.672999,0.695l-7.078001,-5.202c0,0 -0.65,0.462 -0.99,0.462c-0.342,0 -0.75,-0.25 -0.75,-0.25l0.787,-1.057l-0.844,-1.03l1.172,0.499c-0.022,0 0.725,-0.979 0.725,-0.979s0.387,0.228 0.478,0.682s-0.078,0.892 -0.078,0.892l3.047,2.233c0,0 1.797999,-2.003 5.831,-2.003l0,0z" fill="#007fff" id="svg_37"/>
     <path d="m9.446,6.773c0,0 5.735,4.012 6.498,4.611c0.764,0.6 2.580999,2.188 0.667,4.541c-1.874,2.304 -3.882,4.561 -3.882,4.561l-1.146,-0.490999l-1.472,-0.764c0,0 2.759,-3.442001 3.25,-4.097001c0.49,-0.654 0.334,-1.193999 -0.332,-1.694c-0.645,-0.483 -1.740001,-1.118999 -2.709001,-1.792c-0.957999,-0.665999 -2.458,-2.707999 -0.874,-4.875l0,0z" fill="#007fff" id="svg_36"/>
     <g id="svg_35"/>
     <g id="svg_34"/>
     <g id="svg_33"/>
     <g id="svg_32"/>
     <g id="svg_31"/>
     <g id="svg_30"/>
     <g id="svg_29"/>
     <g id="svg_28"/>
     <g id="svg_27"/>
     <g id="svg_26"/>
     <g id="svg_25"/>
     <g id="svg_24"/>
     <g id="svg_23"/>
     <g id="svg_22"/>
     <g id="svg_3"/>
     <line id="svg_2" y2="24.5305" x2="21.1555" y1="15.0305" x1="1.4055" stroke-linecap="round" stroke-linejoin="round" stroke-dasharray="null" stroke-width="2" stroke="#007fff" fill="none"/>
    </g>
   </g>
  </symbol>
  <symbol id="svg_58" xmlns="http://www.w3.org/2000/svg" xmlns:svg="http://www.w3.org/2000/svg">
   <g id="svg_61">
    <title>Layer 1</title>
    <g stroke="null" id="svg_56">
     <path stroke="null" id="svg_57" d="m23.50211,16.41703c-0.26685,-0.707601 -3.45001,0.21566 -6.122999,1.435009c0.10914,-0.203419 0.21979,-0.416159 0.333439,-0.639399c2.129782,-4.187311 4.264561,-10.270691 3.387421,-10.875121c-0.750481,-0.51759 -3.464029,3.14631 -5.56577,6.83819c-0.082109,-5.86306 -1.062389,-13.17571 -2.25995,-13.17571s-2.17785,7.31265 -2.25895,13.17571c-2.10225,-3.691879 -4.81529,-7.35578 -5.56627,-6.83819c-0.87665,0.60443 1.25764,6.68839 3.38742,10.875121c0.11365,0.22324 0.2243,0.435989 0.333441,0.639399c-2.673491,-1.219929 -5.85665,-2.143199 -6.123,-1.435009c-0.29989,0.79561 3.20268,3.353809 6.00735,4.785919c0.260839,0.13348 0.50666,0.251801 0.73796,0.3573c-1.44638,0.59568 -2.85573,1.416941 -2.7606,1.80921c0.11765,0.485531 2.49826,0.131151 4.2085,-0.430149c0.55322,-0.18185 0.96425,-0.361959 1.27416,-0.540319l0,3.26347c0,0.490191 0.34245,0.886539 0.763,0.886539c0.42055,0 0.76299,-0.396931 0.76299,-0.886539l0,-3.26405c0.30941,0.17894 0.71794,0.359049 1.27166,0.540899c1.71024,0.560129 4.089341,0.91568 4.2065,0.430149c0.09462,-0.39168 -1.31422,-1.212358 -2.76161,-1.809219c0.2313,-0.106079 0.47662,-0.2244 0.737961,-0.3573c2.80467,-1.4321 6.30724,-3.990299 6.007349,-4.78591l0,0z" fill="#007f3f"/>
    </g>
    <g id="svg_55"/>
    <g id="svg_54"/>
    <g id="svg_53"/>
    <g id="svg_52"/>
    <g id="svg_51"/>
    <g id="svg_50"/>
    <g id="svg_49"/>
    <g id="svg_48"/>
    <g id="svg_47"/>
    <g id="svg_46"/>
    <g id="svg_45"/>
    <g id="svg_44"/>
    <g id="svg_43"/>
    <g id="svg_42"/>
    <g id="svg_41"/>
   </g>
  </symbol>
 </defs>
</svg>