<?xml version="1.0"?>
<svg width="25.811" height="25.811" xmlns="http://www.w3.org/2000/svg" xmlns:svg="http://www.w3.org/2000/svg">
 <g>
  <title>Layer 1</title>
  <g id="svg_4"/>
  <g id="svg_5"/>
  <g id="svg_6"/>
  <g id="svg_7"/>
  <g id="svg_8"/>
  <g id="svg_9"/>
  <g id="svg_10"/>
  <g id="svg_11"/>
  <g id="svg_12"/>
  <g id="svg_13"/>
  <g id="svg_14"/>
  <g id="svg_15"/>
  <g id="svg_16"/>
  <g id="svg_17"/>
  <g id="svg_18"/>
  <g id="svg_19" stroke="null">
   <g id="svg_20" stroke="null">
    <path fill="#ff7f00" id="svg_21" d="m21.082541,10.320709l-0.58379,0c0.93293,-0.955959 1.518618,-2.341619 1.518618,-3.881899c0,-2.28573 -1.266859,-4.232921 -3.079508,-4.93714c-0.48641,-1.40573 -1.678701,-2.38231 -3.086161,-2.38231c-0.40851,0 -0.80895,0.08572 -1.184679,0.25282c-0.551971,-0.24523 -1.139091,-0.37218 -1.73332,-0.37218c-1.70245,0 -3.23579,1.0113 -4.09367,2.61289c-2.168911,0.175779 -3.887031,2.2483 -3.887031,4.768959c0,1.52454 0.62749,2.88361 1.602691,3.759821c0.000479,0.000549 0.00095,0.000549 0.00095,0.001089c0,-0.00054 -0.000471,-0.00054 -0.00095,-0.001089l0.585218,11.68856c0.057951,1.161591 0.899672,2.075768 1.9181,2.075768l8.85425,0c1.0189,0 1.860151,-0.913097 1.91762,-2.073599l0.060331,-1.19631l1.19133,0c1.58465,0 2.871458,-1.461069 2.871458,-3.270988l0,-3.762541c-0.00095,-1.809389 -1.287758,-3.281851 -2.871458,-3.281851l0,0zm-10.903921,11.338081c-0.014729,0.00108 -0.02993,0.00108 -0.04512,0.00108c-0.374319,0 -0.688299,-0.332041 -0.712049,-0.763361l-0.418489,-7.624899c-0.032301,-0.597351 0.37336,-0.852341 0.69067,-0.86536c0.354839,-0.01302 0.70207,0.292971 0.72249,0.692289c0.104979,2.0112 0.42989,7.695431 0.42989,7.695431c0.0247,0.44923 -0.27408,0.83606 -0.6674,0.86482l0.00001,0l0,0zm4.014341,-0.81382c0,0.44923 -0.32159,0.814899 -0.71537,0.814899c-0.39426,0 -0.715851,-0.365681 -0.715851,-0.814899c0,0 0,-5.71895 0,-7.62545c0,-0.292971 0.100229,-0.814901 0.721071,-0.814901c0.393789,0 0.71015,0.365131 0.71015,0.814901l0,7.62545zm3.776829,-7.57336l-0.41992,7.624899c-0.02422,0.431332 -0.3382,0.763361 -0.71109,0.763361c-0.014719,0 -0.02993,-0.00108 -0.04608,-0.002171c-0.393311,-0.02821 -0.692089,-0.41559 -0.666439,-0.864269l0.418489,-7.62491c0.025169,-0.449221 0.354361,-0.79048 0.75717,-0.76227c0.393311,0.02821 0.692091,0.41613 0.66787,0.865351l0,0.00001l0,0zm-0.52157,-3.24387c-0.597569,0 -1.15428,-0.193691 -1.630239,-0.52519c-0.34676,0.760651 -1.03648,1.28529 -1.838779,1.28529c-0.36433,0 -0.70064,-0.115561 -0.998001,-0.30328c-0.378109,0.63586 -1.015579,1.051991 -1.73855,1.051991c-1.043129,0 -1.903379,-0.869701 -2.06868,-2.00633c-0.011879,0 -0.023279,0.002171 -0.035149,0.002171c-1.523371,0 -2.758881,-1.41061 -2.758881,-3.151091c0,-1.73994 1.23551,-3.15055 2.758881,-3.15055c0.199499,0 0.39378,0.0255 0.582359,0.07162c0.437969,-1.550591 1.710529,-2.67311 3.21347,-2.67311c0.647919,0 1.251659,0.21213 1.76609,0.57401c0.320169,-0.28104 0.71632,-0.45465 1.15144,-0.45465c1.032681,0 1.8687,0.94402 1.891499,2.11754c1.596991,0.16982 2.84675,1.703589 2.84675,3.57157c0.00095,1.982988 -1.40556,3.59001 -3.14221,3.59001l0,0zm4.604782,7.33736c0,0.611439 -0.436062,1.101358 -0.970451,1.101358l-1.083031,0l0.299261,-5.97558l0.78377,0c0.534389,0 0.970451,0.500771 0.970451,1.111681l0,3.762541z" stroke="null"/>
   </g>
  </g>
 </g>
</svg>