<?xml version="1.0"?>
<svg width="25.811" height="25.811" xmlns="http://www.w3.org/2000/svg" xmlns:svg="http://www.w3.org/2000/svg">
 <g>
  <title>Layer 1</title>
  <g stroke="null" id="svg_1">
   <path stroke="null" id="svg_2" d="m23.50211,16.41703c-0.26685,-0.7076 -3.450008,0.21566 -6.122999,1.435009c0.10914,-0.203419 0.21979,-0.416159 0.333439,-0.639399c2.129782,-4.187311 4.264563,-10.270691 3.387419,-10.875121c-0.750481,-0.51759 -3.464027,3.14631 -5.565767,6.838191c-0.082111,-5.86306 -1.062391,-13.175711 -2.259951,-13.175711s-2.177851,7.312651 -2.258949,13.175711c-2.102251,-3.691881 -4.81529,-7.355781 -5.566271,-6.838191c-0.87665,0.60443 1.257639,6.68839 3.387421,10.875121c0.113649,0.22324 0.224298,0.435989 0.333439,0.639399c-2.673491,-1.219929 -5.856649,-2.1432 -6.122999,-1.435009c-0.299891,0.79561 3.202681,3.353809 6.007349,4.785919c0.260841,0.13348 0.50666,0.251801 0.737961,0.3573c-1.446381,0.59568 -2.85573,1.416941 -2.760599,1.809212c0.117649,0.485527 2.498259,0.131149 4.2085,-0.430151c0.553219,-0.18185 0.964249,-0.361959 1.274158,-0.540319l0,3.26347c0,0.490189 0.342451,0.886539 0.763,0.886539c0.420549,0 0.762991,-0.396931 0.762991,-0.886539l0,-3.26405c0.30941,0.17894 0.717939,0.359049 1.27166,0.540899c1.710239,0.560129 4.08934,0.915678 4.206499,0.430151c0.09462,-0.391682 -1.31422,-1.21236 -2.76161,-1.809221c0.2313,-0.106079 0.47662,-0.2244 0.737961,-0.3573c2.80467,-1.4321 6.307238,-3.990299 6.007349,-4.78591l0,0z" fill="#007f3f"/>
  </g>
  <g id="svg_3"/>
  <g id="svg_4"/>
  <g id="svg_5"/>
  <g id="svg_6"/>
  <g id="svg_7"/>
  <g id="svg_8"/>
  <g id="svg_9"/>
  <g id="svg_10"/>
  <g id="svg_11"/>
  <g id="svg_12"/>
  <g id="svg_13"/>
  <g id="svg_14"/>
  <g id="svg_15"/>
  <g id="svg_16"/>
  <g id="svg_17"/>
 </g>
</svg>