<?xml version="1.0"?>
<svg width="45.906" height="45.906" xmlns="http://www.w3.org/2000/svg" xmlns:svg="http://www.w3.org/2000/svg">
 <g>
  <title>Layer 1</title>
  <g id="svg_4"/>
  <g id="svg_5"/>
  <g id="svg_6"/>
  <g id="svg_7"/>
  <g id="svg_8"/>
  <g id="svg_9"/>
  <g id="svg_10"/>
  <g id="svg_11"/>
  <g id="svg_12"/>
  <g id="svg_13"/>
  <g id="svg_14"/>
  <g id="svg_15"/>
  <g id="svg_16"/>
  <g id="svg_17"/>
  <g id="svg_18"/>
  <g id="svg_19" stroke="null">
   <g id="svg_20" stroke="null">
    <path fill="#ff7f00" id="svg_21" d="m31.082544,20.320711l-0.583792,0c0.932928,-0.955959 1.518616,-2.341618 1.518616,-3.881897c0,-2.285739 -1.266855,-4.232925 -3.079506,-4.937147c-0.486416,-1.40573 -1.678699,-2.382308 -3.086163,-2.382308c-0.408512,0 -0.808949,0.08572 -1.184681,0.252825c-0.551968,-0.24523 -1.139084,-0.372185 -1.733322,-0.372185c-1.702448,0 -3.23579,1.0113 -4.093666,2.612888c-2.168909,0.175785 -3.887032,2.248302 -3.887032,4.76896c0,1.524548 0.627492,2.883617 1.602695,3.759827c0.000475,0.000542 0.00095,0.000542 0.00095,0.001083c0,-0.000542 -0.000475,-0.000542 -0.00095,-0.001083l0.585215,11.688557c0.057953,1.161591 0.899675,2.075771 1.918104,2.075771l8.854244,0c1.018904,0 1.860153,-0.913097 1.917627,-2.073601l0.060326,-1.196308l1.191334,0c1.584646,0 2.871454,-1.461071 2.871454,-3.270992l0,-3.762539c-0.000946,-1.809389 -1.287758,-3.281849 -2.871454,-3.281849l0,-0.000002zm-10.903925,11.338078c-0.014725,0.001083 -0.029926,0.001083 -0.045124,0.001083c-0.374313,0 -0.688297,-0.332037 -0.712048,-0.763361l-0.418488,-7.624905c-0.032299,-0.597343 0.37336,-0.852339 0.690672,-0.865356c0.354834,-0.013021 0.702066,0.292973 0.72249,0.692286c0.10498,2.011208 0.42989,7.695435 0.42989,7.695435c0.0247,0.449226 -0.274084,0.836061 -0.667397,0.864819l0.000004,0l0,0zm4.014338,-0.813816c0,0.449223 -0.321585,0.814899 -0.715372,0.814899c-0.394258,0 -0.715845,-0.365677 -0.715845,-0.814899c0,0 0,-5.718952 0,-7.625452c0,-0.292971 0.100229,-0.814898 0.721073,-0.814898c0.393785,0 0.710144,0.365129 0.710144,0.814898l0,7.625452zm3.776829,-7.573366l-0.419912,7.624905c-0.024225,0.431324 -0.338209,0.763363 -0.711096,0.763363c-0.014723,0 -0.029924,-0.001083 -0.046076,-0.002171c-0.393309,-0.028214 -0.692093,-0.415592 -0.666443,-0.864277l0.418486,-7.624903c0.025175,-0.449228 0.354361,-0.790485 0.757174,-0.762276c0.393311,0.028212 0.692093,0.41613 0.667868,0.865356l0.000002,0.000002l-0.000002,0zm-0.521566,-3.243868c-0.597569,0 -1.154282,-0.193687 -1.630245,-0.525185c-0.346758,0.760647 -1.036476,1.285288 -1.838774,1.285288c-0.364334,0 -0.700645,-0.115562 -0.998003,-0.303282c-0.378111,0.63586 -1.015579,1.051989 -1.73855,1.051989c-1.043127,0 -1.903376,-0.869694 -2.06868,-2.006325c-0.011877,0 -0.023277,0.002171 -0.035152,0.002171c-1.523367,0 -2.758875,-1.41061 -2.758875,-3.151093c0,-1.739937 1.235508,-3.150549 2.758875,-3.150549c0.199505,0 0.393785,0.0255 0.582367,0.071616c0.437963,-1.550591 1.710522,-2.673113 3.213465,-2.673113c0.647919,0 1.251659,0.212136 1.766096,0.574012c0.320162,-0.281039 0.71632,-0.454652 1.151434,-0.454652c1.032681,0 1.8687,0.944027 1.891502,2.117547c1.596994,0.169815 2.846752,1.703586 2.846752,3.571564c0.000948,1.982998 -1.405563,3.590012 -3.14221,3.590012l-0.000002,0zm4.604778,7.337358c0,0.611443 -0.436062,1.101362 -0.970453,1.101362l-1.083029,0l0.299259,-5.975574l0.78377,0c0.534391,0 0.970453,0.500767 0.970453,1.111673l0,3.762539z" stroke="null"/>
   </g>
  </g>
 </g>
</svg>