<?xml version="1.0"?>
<svg width="45.549" height="45.549" xmlns="http://www.w3.org/2000/svg" xmlns:svg="http://www.w3.org/2000/svg">
 <g>
  <title>Layer 1</title>
  <g id="svg_1" stroke="null">
   <path fill="#007f3f" d="m32.502106,25.417027c-0.26685,-0.7076 -3.450005,0.21566 -6.122995,1.435017c0.109142,-0.203419 0.21979,-0.416164 0.333435,-0.639404c2.129782,-4.187313 4.264568,-10.270695 3.387424,-10.875126c-0.750483,-0.517588 -3.464025,3.146315 -5.565769,6.838192c-0.082106,-5.863056 -1.062386,-13.175703 -2.259951,-13.175703s-2.177845,7.312647 -2.258951,13.175703c-2.102245,-3.691877 -4.815289,-7.35578 -5.566269,-6.838192c-0.876645,0.604431 1.257642,6.688393 3.387424,10.875126c0.113647,0.22324 0.224293,0.435986 0.333437,0.639404c-2.673492,-1.21994 -5.85665,-2.1432 -6.122998,-1.435017c-0.299891,0.795612 3.202683,3.353813 6.007346,4.785919c0.260839,0.13348 0.50666,0.251801 0.737965,0.3573c-1.446388,0.595688 -2.855731,1.416946 -2.760605,1.809216c0.117655,0.485531 2.498264,0.131145 4.208498,-0.430153c0.553223,-0.181854 0.964258,-0.361961 1.274162,-0.540318l0,3.26347c0,0.490189 0.342447,0.886539 0.762997,0.886539c0.420551,0 0.762997,-0.396931 0.762997,-0.886539l0,-3.264053c0.309404,0.17894 0.717937,0.359047 1.27166,0.540901c1.710236,0.560135 4.089342,0.915684 4.206493,0.430153c0.094624,-0.391685 -1.314217,-1.212364 -2.761604,-1.809216c0.231302,-0.106083 0.476622,-0.224407 0.737963,-0.3573c2.804665,-1.432106 6.307238,-3.990307 6.007345,-4.785919l-0.000004,0z" id="svg_2" stroke="null"/>
  </g>
  <g id="svg_3"/>
  <g id="svg_4"/>
  <g id="svg_5"/>
  <g id="svg_6"/>
  <g id="svg_7"/>
  <g id="svg_8"/>
  <g id="svg_9"/>
  <g id="svg_10"/>
  <g id="svg_11"/>
  <g id="svg_12"/>
  <g id="svg_13"/>
  <g id="svg_14"/>
  <g id="svg_15"/>
  <g id="svg_16"/>
  <g id="svg_17"/>
 </g>
</svg>