<?xml version="1.0"?>
<svg width="25.811" height="25.811" xmlns="http://www.w3.org/2000/svg" xmlns:svg="http://www.w3.org/2000/svg">
 <g>
  <title>Layer 1</title>
  <g id="svg_21">
   <circle cx="22.071" cy="2.063" r="2.313" fill="#007fff" id="svg_2"/>
   <path d="m16.933001,2.686c1.035,0 2.560999,0.632 2.560999,2.157s-0.977999,4.333 -0.977999,4.333s2.554996,1.673 3.191,2.186c1.331999,1.072001 0.879,2.034 -0.904001,1.281c-2.894999,-1.222 -4.254,-1.825 -4.472,-2.587997s-0.025,-2.311 -0.025,-2.311l-1.672999,0.695l-7.078001,-5.202c0,0 -0.65,0.462 -0.99,0.462c-0.342,0 -0.75,-0.25 -0.75,-0.25l0.787,-1.057l-0.844,-1.03l1.172,0.499c-0.022,0 0.725,-0.979 0.725,-0.979s0.387,0.228 0.478001,0.682s-0.078,0.892 -0.078,0.892l3.047,2.233c0,0 1.797998,-2.003 5.830999,-2.003l0.000002,-0.000002z" fill="#007fff" id="svg_3"/>
   <path d="m9.446,6.773c0,0 5.735,4.012 6.498,4.611c0.764,0.6 2.580999,2.188 0.667,4.540999c-1.874,2.304001 -3.882,4.561001 -3.882,4.561001l-1.146,-0.490999l-1.472,-0.764c0,0 2.759,-3.442001 3.25,-4.097002c0.49,-0.654 0.334,-1.194 -0.332,-1.693997c-0.645,-0.483003 -1.740002,-1.119001 -2.709002,-1.792003c-0.958,-0.665998 -2.457998,-2.708 -0.874,-4.875l0.000001,0.000001z" fill="#007fff" id="svg_4"/>
   <g id="svg_6"/>
   <g id="svg_7"/>
   <g id="svg_8"/>
   <g id="svg_9"/>
   <g id="svg_10"/>
   <g id="svg_11"/>
   <g id="svg_12"/>
   <g id="svg_13"/>
   <g id="svg_14"/>
   <g id="svg_15"/>
   <g id="svg_16"/>
   <g id="svg_17"/>
   <g id="svg_18"/>
   <g id="svg_19"/>
   <g id="svg_20"/>
   <line id="svg_1" y2="24.530502" x2="21.155502" y1="15.030502" x1="1.405502" stroke-linecap="round" stroke-linejoin="round" stroke-dasharray="null" stroke-width="2" stroke="#007fff" fill="none"/>
  </g>
 </g>
</svg>